<svg width="41" height="40" viewBox="0 0 41 40" fill="none" xmlns="http://www.w3.org/2000/svg">
<path d="M7.43873 17.3631L40.8647 19.4635L-3.04401e-06 20.4598L16.5445 5.75077L7.43873 17.3631Z" fill="white"/>
<path d="M16.4658 11.177H15.3768V10.106H16.4658V11.177ZM16.4388 16.604H15.4038V12.041H16.4388V16.604ZM17.6037 14.219V13.319H20.3397V14.219H17.6037ZM20.3936 16.694V15.659C20.8796 15.659 21.2306 15.569 21.4466 15.389C21.6686 15.203 21.7796 14.876 21.7796 14.408V10.484H22.8596V14.408C22.8596 14.876 22.7876 15.281 22.6436 15.623C22.4996 15.965 22.2476 16.229 21.8876 16.415C21.5336 16.601 21.0356 16.694 20.3936 16.694ZM28.7184 12.896V14.183C28.7184 14.963 28.5234 15.578 28.1334 16.028C27.7434 16.472 27.1734 16.694 26.4234 16.694C25.6674 16.694 25.0944 16.472 24.7044 16.028C24.3204 15.578 24.1284 14.963 24.1284 14.183V12.896C24.1284 12.116 24.3204 11.504 24.7044 11.06C25.0944 10.616 25.6674 10.394 26.4234 10.394C27.1734 10.394 27.7434 10.616 28.1334 11.06C28.5234 11.504 28.7184 12.116 28.7184 12.896ZM27.6114 12.896C27.6114 12.404 27.5154 12.035 27.3234 11.789C27.1314 11.537 26.8314 11.411 26.4234 11.411C26.0154 11.411 25.7154 11.537 25.5234 11.789C25.3314 12.035 25.2354 12.404 25.2354 12.896V14.183C25.2354 14.675 25.3314 15.047 25.5234 15.299C25.7154 15.551 26.0154 15.677 26.4234 15.677C26.8314 15.677 27.1314 15.551 27.3234 15.299C27.5154 15.047 27.6114 14.675 27.6114 14.183V12.896ZM30.1462 16.604V10.484H32.0092C32.4652 10.484 32.8252 10.55 33.0892 10.682C33.3592 10.814 33.5512 11 33.6652 11.24C33.7852 11.48 33.8452 11.762 33.8452 12.086V12.338C33.8452 12.812 33.6412 13.175 33.2332 13.427C33.5212 13.541 33.7402 13.706 33.8902 13.922C34.0402 14.138 34.1152 14.396 34.1152 14.696V14.948C34.1152 15.278 34.0552 15.569 33.9352 15.821C33.8152 16.067 33.6172 16.259 33.3412 16.397C33.0652 16.535 32.6962 16.604 32.2342 16.604H30.1462ZM32.0092 11.474H31.2262V13.004H32.0092C32.2492 13.004 32.4292 12.95 32.5492 12.842C32.6752 12.728 32.7382 12.575 32.7382 12.383V12.086C32.7382 11.894 32.6752 11.744 32.5492 11.636C32.4292 11.528 32.2492 11.474 32.0092 11.474ZM32.2342 13.994H31.2262V15.614H32.2342C32.4862 15.614 32.6782 15.554 32.8102 15.434C32.9422 15.314 33.0082 15.152 33.0082 14.948V14.651C33.0082 14.447 32.9422 14.288 32.8102 14.174C32.6782 14.054 32.4862 13.994 32.2342 13.994ZM36.7429 15.695C37.4389 15.695 37.7869 15.437 37.7869 14.921C37.7869 14.711 37.7329 14.546 37.6249 14.426C37.5229 14.306 37.3309 14.201 37.0489 14.111L36.3109 13.868C35.4289 13.58 34.9879 13.001 34.9879 12.131C34.9879 11.627 35.1439 11.213 35.4559 10.889C35.7739 10.559 36.2689 10.394 36.9409 10.394C37.2229 10.394 37.5019 10.427 37.7779 10.493C38.0539 10.553 38.3479 10.652 38.6599 10.79L38.3269 11.717C38.0389 11.603 37.7929 11.522 37.5889 11.474C37.3909 11.42 37.1869 11.393 36.9769 11.393C36.7009 11.393 36.4819 11.444 36.3199 11.546C36.1639 11.642 36.0859 11.819 36.0859 12.077C36.0859 12.269 36.1399 12.428 36.2479 12.554C36.3619 12.674 36.5479 12.776 36.8059 12.86L37.5439 13.103C37.9879 13.253 38.3209 13.472 38.5429 13.76C38.7709 14.042 38.8849 14.417 38.8849 14.885C38.8849 15.425 38.7139 15.863 38.3719 16.199C38.0299 16.529 37.4929 16.694 36.7609 16.694C36.4729 16.694 36.1729 16.661 35.8609 16.595C35.5549 16.523 35.2189 16.403 34.8529 16.235L35.1859 15.308C35.5219 15.452 35.8069 15.554 36.0409 15.614C36.2809 15.668 36.5149 15.695 36.7429 15.695Z" fill="white"/>
</svg>
